<?xml version="1.0" encoding="UTF-8" standalone="no"?>
<!-- Generator: Adobe Illustrator 16.0.0, SVG Export Plug-In . SVG Version: 6.00 Build 0)  -->

<svg
   xmlns:dc="http://purl.org/dc/elements/1.1/"
   xmlns:cc="http://creativecommons.org/ns#"
   xmlns:rdf="http://www.w3.org/1999/02/22-rdf-syntax-ns#"
   xmlns:svg="http://www.w3.org/2000/svg"
   xmlns="http://www.w3.org/2000/svg"
   xmlns:sodipodi="http://sodipodi.sourceforge.net/DTD/sodipodi-0.dtd"
   xmlns:inkscape="http://www.inkscape.org/namespaces/inkscape"
   version="1.1"
   id="White"
   x="0px"
   y="0px"
   width="314"
   height="314"
   viewBox="0 0 314 314"
   enable-background="new 0 0 314 302"
   xml:space="preserve"
   inkscape:version="0.92.5 (2060ec1f9f, 2020-04-08)"
   sodipodi:docname="faviconlogo.svg"
   inkscape:export-filename="/home/luke/devel/cciw.co.uk/src/cciw/cciwmain/static/images/faviconlogo.png"
   inkscape:export-xdpi="78.269997"
   inkscape:export-ydpi="78.269997"><metadata
     id="metadata6039"><rdf:RDF><cc:Work
         rdf:about=""><dc:format>image/svg+xml</dc:format><dc:type
           rdf:resource="http://purl.org/dc/dcmitype/StillImage" /><dc:title></dc:title></cc:Work></rdf:RDF></metadata><defs
     id="defs6037" /><sodipodi:namedview
     pagecolor="#ffffff"
     bordercolor="#666666"
     borderopacity="1"
     objecttolerance="10"
     gridtolerance="10"
     guidetolerance="10"
     inkscape:pageopacity="0"
     inkscape:pageshadow="2"
     inkscape:window-width="1920"
     inkscape:window-height="1024"
     id="namedview6035"
     showgrid="false"
     inkscape:zoom="2.6374172"
     inkscape:cx="158.98095"
     inkscape:cy="158.17242"
     inkscape:window-x="0"
     inkscape:window-y="0"
     inkscape:window-maximized="1"
     inkscape:current-layer="White" /><rect
     rx="10.237288"
     style="color:#000000;display:inline;overflow:visible;visibility:visible;opacity:1;fill:#ffffff;fill-opacity:1;fill-rule:nonzero;stroke:#a2a2a2;stroke-width:0.75590551;stroke-linecap:butt;stroke-linejoin:miter;stroke-miterlimit:4;stroke-dasharray:none;stroke-dashoffset:0;stroke-opacity:0.56020945;marker:none;marker-start:none;marker-mid:none;marker-end:none;enable-background:accumulate"
     id="rect834"
     width="314"
     height="314"
     x="0"
     y="4.7790538e-10"
     ry="10.237288" /><g
     style="fill:#065a1b;fill-opacity:1;stroke-width:0.69573224"
     id="g6013"
     transform="matrix(1.4373346,0,0,1.4373346,-76.105487,-101.73396)"><path
       style="fill:#065a1b;fill-opacity:1;stroke-width:0.69573224"
       inkscape:connector-curvature="0"
       id="path6015"
       d="m 108.3,276.705 c -4.004,1.788 -7.391,3.003 -10.16,3.645 -2.771,0.643 -6.068,0.963 -9.896,0.963 -8.687,0 -15.794,-2.732 -21.321,-8.195 -5.528,-5.464 -8.291,-12.488 -8.291,-21.075 0,-9.316 3.027,-16.94 9.083,-22.87 6.056,-5.93 13.83,-8.895 23.323,-8.895 2.668,0 5.048,0.133 7.138,0.396 2.09,0.265 5.137,0.812 9.14,1.644 v 15.372 c -3.022,-2.14 -5.73,-3.626 -8.122,-4.457 -2.393,-0.831 -5.151,-1.246 -8.273,-1.246 -4.534,0 -8.242,1.693 -11.126,5.08 -2.884,3.386 -4.326,7.736 -4.326,13.049 0,5.992 1.391,10.745 4.174,14.258 2.784,3.513 6.542,5.27 11.278,5.27 3.349,0 6.365,-0.637 9.048,-1.908 2.682,-1.271 5.458,-3.394 8.33,-6.363 v 15.332 z" /><path
       style="fill:#065a1b;fill-opacity:1;stroke-width:0.69573224"
       inkscape:connector-curvature="0"
       id="path6017"
       d="m 163.934,276.705 c -4.003,1.788 -7.39,3.003 -10.159,3.645 -2.771,0.643 -6.069,0.963 -9.896,0.963 -8.687,0 -15.794,-2.732 -21.321,-8.195 -5.527,-5.464 -8.291,-12.488 -8.291,-21.075 0,-9.316 3.027,-16.94 9.083,-22.87 6.056,-5.93 13.83,-8.895 23.323,-8.895 2.668,0 5.048,0.133 7.138,0.396 2.09,0.265 5.137,0.812 9.141,1.644 v 15.372 c -3.022,-2.14 -5.73,-3.626 -8.122,-4.457 -2.394,-0.831 -5.151,-1.246 -8.273,-1.246 -4.535,0 -8.243,1.693 -11.126,5.08 -2.883,3.386 -4.325,7.736 -4.325,13.049 0,5.992 1.391,10.745 4.173,14.258 2.784,3.513 6.542,5.27 11.278,5.27 3.349,0 6.365,-0.637 9.047,-1.908 2.682,-1.271 5.459,-3.394 8.33,-6.363 z" /><path
       style="fill:#065a1b;fill-opacity:1;stroke-width:0.69573224"
       inkscape:connector-curvature="0"
       id="path6019"
       d="m 170.808,267.829 v -16.165 c 0,-2.819 -0.145,-5.161 -0.434,-7.025 -0.29,-1.864 -0.8,-3.664 -1.53,-5.401 h 9.254 9.253 c -0.855,1.687 -1.46,3.84 -1.812,6.459 -0.354,2.619 -0.528,6.27 -0.528,10.953 v 11.18 c 0,2.819 0.145,5.161 0.434,7.025 0.289,1.863 0.799,3.663 1.53,5.4 h -9.064 -9.065 c 0.73,-1.737 1.247,-3.537 1.549,-5.4 0.274,-1.865 0.413,-4.207 0.413,-7.026 z m 7.214,-49.402 c 2.366,0 4.362,0.812 5.986,2.437 1.624,1.625 2.436,3.62 2.436,5.986 0,2.366 -0.812,4.362 -2.436,5.986 -1.624,1.624 -3.62,2.436 -5.986,2.436 -2.367,0 -4.363,-0.812 -5.987,-2.436 -1.624,-1.624 -2.436,-3.62 -2.436,-5.986 0,-2.366 0.812,-4.362 2.436,-5.986 1.624,-1.624 3.62,-2.437 5.987,-2.437 z" /><path
       style="fill:#065a1b;fill-opacity:1;stroke-width:0.69573224"
       inkscape:connector-curvature="0"
       id="path6021"
       d="m 205.782,280.255 -12.426,-46.683 c -0.781,-2.87 -1.536,-5.236 -2.267,-7.101 -0.731,-1.865 -1.586,-3.639 -2.568,-5.325 h 9.935 9.974 c -0.253,1.913 -0.366,3.588 -0.341,5.023 0.025,1.435 0.214,2.945 0.567,4.532 l 4.983,23.567 h 0.011 l 6.636,-24.55 c 0.378,-1.41 0.729,-2.946 1.058,-4.607 0.326,-1.662 0.541,-2.984 0.642,-3.966 h 5.477 5.515 c 0.125,1.232 0.332,2.682 0.623,4.343 0.289,1.662 0.597,3.073 0.926,4.23 l 6.511,25.646 h 0.061 l 5.804,-27.383 c 0.251,-1.108 0.353,-2.172 0.302,-3.191 -0.051,-1.019 -0.251,-2.234 -0.604,-3.645 h 9.562 9.563 c -1.009,1.713 -1.877,3.499 -2.606,5.363 -0.73,1.863 -1.486,4.217 -2.266,7.062 l -12.427,46.683 h -6.08 -6.119 l -9.377,-30.215 h 0.066 l -8.932,30.215 h -6.081 -6.122 z" /></g><path
     style="fill:#065a1b;fill-opacity:1;stroke-width:1"
     inkscape:connector-curvature="0"
     id="path6029"
     d="m 265.00249,176.04419 c 2.40659,-7.1565 4.71447,-14.17055 7.13521,-21.13445 1.44924,-4.17914 -0.76344,-5.06794 -3.52795,-6.09717 -2.86325,-1.06336 -5.07241,-1.42249 -5.84464,2.857 -0.58006,3.21809 -1.23416,7.80453 -1.95526,11.44197 C 241.11617,150.56007 227.60741,139.58753 217.13466,126.40811 199.25699,103.90735 185.88572,77.96377 174.23349,50.796346 168.77497,38.068315 164.03404,24.931035 158.98986,12.036479 139.30673,76.097914 97.978203,119.2857 53.015974,160.37894 c -0.724628,-3.52509 -1.290575,-5.8183 -1.655532,-8.15364 -0.673508,-4.30956 -2.653445,-4.71281 -5.964527,-3.44683 -3.085402,1.1777 -5.019507,2.2932 -3.413337,6.58871 2.83152,7.57784 5.46557,16.2511 8.182482,24.7117 3.466221,10.36861 3.466221,10.36861 3.466221,10.36861 0.80927,2.29923 1.629091,4.55834 2.477148,6.70509 0.546555,1.38235 3.901709,0.79449 3.887599,-0.88279 -0.01648,-1.75753 -0.477799,-3.77986 -0.966171,-5.82031 H 254.89998 c -0.47604,2.16282 -0.89917,4.2293 -1.08606,5.82031 -0.15344,1.2379 4.09743,1.11953 4.34602,-0.0113 0.38082,-1.73946 1.06138,-3.82403 1.78951,-5.81027 12.18825,-35.53855 0,0 5.05304,-14.40411 z M 184.24959,77.1753 c 12.61312,25.12298 26.67371,49.16659 46.74472,67.28157 8.80131,7.949 18.8703,14.0261 28.95867,21.38925 -0.21507,1.04128 -0.71404,3.52711 -1.37344,6.80341 -47.15905,-31.09381 -76.2288,-77.7525 -92.91464,-135.744856 6.16903,13.442252 11.98193,27.12128 18.58469,40.270626 z M 57.093994,159.3196 C 82.022269,137.71164 104.79784,113.46941 124.66959,85.718152 136.86311,68.690621 147.39226,50.409126 154.8942,29.96887 c 0.28561,-0.786465 0.9732,-2.66036 3.02723,-7.732311 -2.97963,11.425915 -7.6518,27.602775 -12.04543,37.824917 -8.74491,20.345982 -20.57875,38.350594 -33.67143,55.201564 -16.216892,20.87164 -33.805439,40.12822 -52.818563,57.62523 -0.865675,0.7945 -1.801879,1.49471 -3.312843,2.74463 -0.872737,-4.14703 -2.064579,-7.7945 -2.216195,-11.49413 -0.06356,-1.56293 1.833606,-3.60334 3.237025,-4.81917 z m 91.222116,-10.82202 c 4.92078,-10.40874 8.45755,-21.68622 12.29225,-31.74586 1.65555,6.92982 3.07306,15.41849 5.72296,23.35946 4.18028,12.52942 8.32529,24.11787 18.18274,37.04853 -14.85049,0.65807 -39.00302,1.17369 -60.56205,1.64918 10.18712,-7.79653 18.53712,-17.98454 24.3641,-30.31131 z"
     sodipodi:nodetypes="cccccccccccccccccccccccccccccccccccccccccccc" /><path
     stroke-miterlimit="10"
     d="M 173.188,122.226"
     id="path6031"
     inkscape:connector-curvature="0"
     style="fill:#ffffff;stroke:#010202;stroke-miterlimit:10"
     transform="translate(-5.67,3.495)" /><path
     stroke-miterlimit="10"
     d="M 214.268,105.668"
     id="path6033"
     inkscape:connector-curvature="0"
     style="fill:#ffffff;stroke:#010202;stroke-miterlimit:10"
     transform="translate(-5.67,3.495)" /><rect
     style="color:#000000;display:inline;overflow:visible;visibility:visible;opacity:1;fill:none;fill-opacity:1;fill-rule:nonzero;stroke:none;stroke-width:0.75590551;stroke-linecap:butt;stroke-linejoin:miter;stroke-miterlimit:4;stroke-dasharray:none;stroke-dashoffset:0;stroke-opacity:0.56020945;marker:none;marker-start:none;marker-mid:none;marker-end:none;enable-background:accumulate"
     id="rect872"
     width="314.24408"
     height="314.24408"
     x="0"
     y="-0.24407959"
     ry="13.649718" /></svg>
