<?xml version="1.0" encoding="UTF-8" standalone="no"?>
<!-- Generator: Adobe Illustrator 16.0.0, SVG Export Plug-In . SVG Version: 6.00 Build 0)  -->

<svg
   xmlns:dc="http://purl.org/dc/elements/1.1/"
   xmlns:cc="http://creativecommons.org/ns#"
   xmlns:rdf="http://www.w3.org/1999/02/22-rdf-syntax-ns#"
   xmlns:svg="http://www.w3.org/2000/svg"
   xmlns="http://www.w3.org/2000/svg"
   xmlns:sodipodi="http://sodipodi.sourceforge.net/DTD/sodipodi-0.dtd"
   xmlns:inkscape="http://www.inkscape.org/namespaces/inkscape"
   version="1.1"
   id="White"
   x="0px"
   y="0px"
   width="314"
   height="314"
   viewBox="0 0 314 314"
   enable-background="new 0 0 314 302"
   xml:space="preserve"
   inkscape:version="0.92.5 (2060ec1f9f, 2020-04-08)"
   sodipodi:docname="greenlogo.svg"
   inkscape:export-filename="/home/luke/devel/cciw.co.uk/src/cciw/cciwmain/static/images/greenlogo.png"
   inkscape:export-xdpi="78.269997"
   inkscape:export-ydpi="78.269997"><metadata
     id="metadata6039"><rdf:RDF><cc:Work
         rdf:about=""><dc:format>image/svg+xml</dc:format><dc:type
           rdf:resource="http://purl.org/dc/dcmitype/StillImage" /><dc:title /></cc:Work></rdf:RDF></metadata><defs
     id="defs6037" /><sodipodi:namedview
     pagecolor="#ffffff"
     bordercolor="#666666"
     borderopacity="1"
     objecttolerance="10"
     gridtolerance="10"
     guidetolerance="10"
     inkscape:pageopacity="0"
     inkscape:pageshadow="2"
     inkscape:window-width="1920"
     inkscape:window-height="1024"
     id="namedview6035"
     showgrid="false"
     inkscape:zoom="2.6374172"
     inkscape:cx="90.353203"
     inkscape:cy="172.58046"
     inkscape:window-x="0"
     inkscape:window-y="0"
     inkscape:window-maximized="1"
     inkscape:current-layer="White" /><rect
     style="color:#000000;display:inline;overflow:visible;visibility:visible;opacity:1;fill:#ffffff;fill-opacity:1;fill-rule:nonzero;stroke:none;stroke-width:0.75590551;stroke-linecap:butt;stroke-linejoin:miter;stroke-miterlimit:4;stroke-dasharray:none;stroke-dashoffset:0;stroke-opacity:0.56020945;marker:none;marker-start:none;marker-mid:none;marker-end:none;enable-background:accumulate"
     id="rect834"
     width="313.24411"
     height="313.24411"
     x="0.37795275"
     y="0.37795219"
     ry="10.237288" /><g
     id="g5997"
     transform="matrix(1.0708774,0,0,1.0708774,-13.557802,-11.157018)"
     style="fill:#065a1b;fill-opacity:1;stroke-width:0.93381375"><g
       id="g5999"
       style="fill:#065a1b;fill-opacity:1;stroke-width:0.93381375"><path
         d="M 79.485,61.054 61.647,62.846 C 42.61,82.559 29.567,108.088 25.426,136.508 L 87.125,78.439 c -4.286,-4.656 -7.08,-10.702 -7.64,-17.385 z"
         id="path6001"
         inkscape:connector-curvature="0"
         style="fill:#065a1b;fill-opacity:1;stroke-width:0.93381375" /><path
         d="m 82.64,45.125 c -5.288,3.608 -10.298,7.592 -15.007,11.9 l 11.778,0.313 c 0.184,-4.389 1.324,-8.528 3.229,-12.213 z"
         id="path6003"
         inkscape:connector-curvature="0"
         style="fill:#065a1b;fill-opacity:1;stroke-width:0.93381375" /><path
         d="m 113.238,29.576 c 5.537,0.856 10.852,3.495 14.911,6.991 l 11.275,-13.396 c -9.048,1.266 -17.809,3.429 -26.186,6.405 z"
         id="path6005"
         inkscape:connector-curvature="0"
         style="fill:#065a1b;fill-opacity:1;stroke-width:0.93381375" /><path
         d="M 138.094,57.219 247.48,55.94 C 223.758,34.75 192.461,21.862 158.151,21.862 c -2.222,0 -4.429,0.06 -6.625,0.167 l -20.598,17.364 c 4.26,4.928 6.951,10.853 7.166,17.826 z"
         id="path6007"
         inkscape:connector-curvature="0"
         style="fill:#065a1b;fill-opacity:1;stroke-width:0.93381375" /></g><path
       d="m 105.994,110.296 1.171,-22.417 C 100.417,87.526 94.279,84.89 89.494,80.735 l -65.469,77.021 c 0.035,2.733 0.162,5.443 0.357,8.135 l 0.04,0.002 c 1.349,-0.396 4.038,-1.631 9.399,-4.982 27.202,-16.465 53.629,-36.096 72.173,-50.615 z"
       id="path6009"
       inkscape:connector-curvature="0"
       style="fill:#065a1b;fill-opacity:1;stroke-width:0.93381375" /><path
       d="m 141.396,90.277 c -3.8,-2.5 -7.832,-1.704 -9.861,0 -1.327,1.114 -10.036,8.397 -19.527,15.996 L 110.5,87.875 c 8.4,-1.072 17.248,-4.753 21.875,-11.375 l 57.064,39.375 c -1.812,0.654 -15.022,7.667 -23.939,7 9.5,-2 15.167,-5.074 15.167,-5.074 -26.99,-18.217 -39.271,-27.524 -39.271,-27.524 z"
       id="path6011"
       inkscape:connector-curvature="0"
       style="fill:#065a1b;fill-opacity:1;stroke-width:0.93381375" /><g
       id="g6013"
       style="fill:#065a1b;fill-opacity:1;stroke-width:0.93381375"><path
         d="m 108.3,276.705 c -4.004,1.788 -7.391,3.003 -10.16,3.645 -2.771,0.643 -6.068,0.963 -9.896,0.963 -8.687,0 -15.794,-2.732 -21.321,-8.195 -5.528,-5.464 -8.291,-12.488 -8.291,-21.075 0,-9.316 3.027,-16.94 9.083,-22.87 6.056,-5.93 13.83,-8.895 23.323,-8.895 2.668,0 5.048,0.133 7.138,0.396 2.09,0.265 5.137,0.812 9.14,1.644 v 15.372 c -3.022,-2.14 -5.73,-3.626 -8.122,-4.457 -2.393,-0.831 -5.151,-1.246 -8.273,-1.246 -4.534,0 -8.242,1.693 -11.126,5.08 -2.884,3.386 -4.326,7.736 -4.326,13.049 0,5.992 1.391,10.745 4.174,14.258 2.784,3.513 6.542,5.27 11.278,5.27 3.349,0 6.365,-0.637 9.048,-1.908 2.682,-1.271 5.458,-3.394 8.33,-6.363 v 15.332 z"
         id="path6015"
         inkscape:connector-curvature="0"
         style="fill:#065a1b;fill-opacity:1;stroke-width:0.93381375" /><path
         d="m 163.934,276.705 c -4.003,1.788 -7.39,3.003 -10.159,3.645 -2.771,0.643 -6.069,0.963 -9.896,0.963 -8.687,0 -15.794,-2.732 -21.321,-8.195 -5.527,-5.464 -8.291,-12.488 -8.291,-21.075 0,-9.316 3.027,-16.94 9.083,-22.87 6.056,-5.93 13.83,-8.895 23.323,-8.895 2.668,0 5.048,0.133 7.138,0.396 2.09,0.265 5.137,0.812 9.141,1.644 v 15.372 c -3.022,-2.14 -5.73,-3.626 -8.122,-4.457 -2.394,-0.831 -5.151,-1.246 -8.273,-1.246 -4.535,0 -8.243,1.693 -11.126,5.08 -2.883,3.386 -4.325,7.736 -4.325,13.049 0,5.992 1.391,10.745 4.173,14.258 2.784,3.513 6.542,5.27 11.278,5.27 3.349,0 6.365,-0.637 9.047,-1.908 2.682,-1.271 5.459,-3.394 8.33,-6.363 z"
         id="path6017"
         inkscape:connector-curvature="0"
         style="fill:#065a1b;fill-opacity:1;stroke-width:0.93381375" /><path
         d="m 170.808,267.829 v -16.165 c 0,-2.819 -0.145,-5.161 -0.434,-7.025 -0.29,-1.864 -0.8,-3.664 -1.53,-5.401 h 9.254 9.253 c -0.855,1.687 -1.46,3.84 -1.812,6.459 -0.354,2.619 -0.528,6.27 -0.528,10.953 v 11.18 c 0,2.819 0.145,5.161 0.434,7.025 0.289,1.863 0.799,3.663 1.53,5.4 h -9.064 -9.065 c 0.73,-1.737 1.247,-3.537 1.549,-5.4 0.274,-1.865 0.413,-4.207 0.413,-7.026 z m 7.214,-49.402 c 2.366,0 4.362,0.812 5.986,2.437 1.624,1.625 2.436,3.62 2.436,5.986 0,2.366 -0.812,4.362 -2.436,5.986 -1.624,1.624 -3.62,2.436 -5.986,2.436 -2.367,0 -4.363,-0.812 -5.987,-2.436 -1.624,-1.624 -2.436,-3.62 -2.436,-5.986 0,-2.366 0.812,-4.362 2.436,-5.986 1.624,-1.624 3.62,-2.437 5.987,-2.437 z"
         id="path6019"
         inkscape:connector-curvature="0"
         style="fill:#065a1b;fill-opacity:1;stroke-width:0.93381375" /><path
         d="m 205.782,280.255 -12.426,-46.683 c -0.781,-2.87 -1.536,-5.236 -2.267,-7.101 -0.731,-1.865 -1.586,-3.639 -2.568,-5.325 h 9.935 9.974 c -0.253,1.913 -0.366,3.588 -0.341,5.023 0.025,1.435 0.214,2.945 0.567,4.532 l 4.983,23.567 h 0.011 l 6.636,-24.55 c 0.378,-1.41 0.729,-2.946 1.058,-4.607 0.326,-1.662 0.541,-2.984 0.642,-3.966 h 5.477 5.515 c 0.125,1.232 0.332,2.682 0.623,4.343 0.289,1.662 0.597,3.073 0.926,4.23 l 6.511,25.646 h 0.061 l 5.804,-27.383 c 0.251,-1.108 0.353,-2.172 0.302,-3.191 -0.051,-1.019 -0.251,-2.234 -0.604,-3.645 h 9.562 9.563 c -1.009,1.713 -1.877,3.499 -2.606,5.363 -0.73,1.863 -1.486,4.217 -2.266,7.062 l -12.427,46.683 h -6.08 -6.119 l -9.377,-30.215 h 0.066 l -8.932,30.215 h -6.081 -6.122 z"
         id="path6021"
         inkscape:connector-curvature="0"
         style="fill:#065a1b;fill-opacity:1;stroke-width:0.93381375" /></g><g
       id="g6023"
       style="fill:#065a1b;fill-opacity:1;stroke-width:0.93381375"><path
         d="m 225.685,134.283 c 0.018,-0.377 -0.07,-0.801 0.071,-1.123 0.597,-1.347 -0.12,-3.144 1.443,-4.166 0.221,-0.145 0.273,-0.524 0.465,-0.741 0.26,-0.295 0.583,-0.767 0.871,-0.761 0.834,0.017 1.663,0.234 2.538,0.38 0.013,-0.255 0.021,-0.461 0.025,-0.536 1.019,0.185 2.003,0.363 2.996,0.543 -0.135,0.291 1.135,0.652 1.238,1.012 0.899,0.646 0.822,0.717 1.67,0.612 0.395,0.542 0.841,0.632 1.165,1.122 0.128,0.193 0.244,2.016 0.427,2.68 0.093,0.337 0.283,0.706 0.22,1.017 -0.361,1.753 -2.298,2.886 -2.731,4.761 1.401,0.186 4.073,1.998 5.78,1.789 0.894,-0.109 1.846,0.401 2.785,0.495 2.986,0.299 5.979,0.535 8.969,0.795 0.195,0.017 0.512,0.116 0.568,0.036 1.139,-1.628 2.46,-0.236 3.692,-0.322 0.172,1.075 -0.321,1.618 -1.255,1.707 -2.086,0.198 -4.178,0.337 -6.269,0.492 -1.191,0.088 -2.386,0.145 -3.575,0.251 -0.207,0.019 -0.397,0.215 -0.596,0.328 -0.929,0.525 -1.802,1.306 -2.797,1.52 -1.972,0.426 -2.918,1.474 -3.086,3.453 -0.139,1.633 -0.665,3.115 -1.623,4.538 -0.679,1.008 -0.809,2.406 -0.209,3.668 0.256,0.539 0.58,1.059 0.73,1.625 0.073,0.275 -0.084,0.775 -0.307,0.934 -0.746,0.525 -0.898,1.133 -0.54,1.932 1.957,4.373 2.74,9.041 3.301,13.738 0.232,1.938 -0.575,3.719 -1.56,5.426 -0.595,1.033 -0.963,2.242 -1.202,3.42 -0.258,1.27 -2.659,3.678 -3.954,3.514 -0.688,-0.088 -1.317,-0.631 -2.08,-1.021 -0.071,0.225 -0.098,0.555 -0.265,0.781 -0.332,0.447 -0.716,1.143 -1.126,1.178 -0.558,0.047 -1.319,-0.283 -1.707,-0.711 -0.716,-0.789 -0.904,-1.766 -0.533,-2.887 0.407,-1.23 0.674,-2.523 0.849,-3.809 0.231,-1.701 0.485,-1.885 2.08,-2.305 0.743,-0.195 1.83,-0.984 1.871,-1.566 0.101,-1.408 0.525,-2.99 -0.597,-4.271 -0.048,-0.055 -0.132,-0.078 -0.378,-0.219 -0.691,1.072 -1.299,2.232 -2.114,3.221 -0.915,1.111 -1.982,2.105 -3.064,3.061 -0.237,0.211 -0.919,0.207 -1.21,0.018 -0.957,-0.625 -1.833,-1.377 -2.729,-2.094 -0.117,-0.094 -0.232,-0.268 -0.237,-0.408 -0.053,-1.473 -0.125,-2.947 -0.102,-4.42 0.014,-0.824 0.361,-1.664 0.276,-2.467 -0.358,-3.391 0.662,-6.627 1.024,-9.934 0.099,-0.898 0.621,-1.75 1.021,-2.818 -1.136,0.096 -2.095,0.176 -3.409,0.287 0.312,-1.094 0.49,-2.002 0.83,-2.846 1.159,-2.873 1.034,-5.848 0.84,-8.841 -0.052,-0.797 -0.169,-1.63 -0.004,-2.391 0.289,-1.335 -0.344,-2.226 -1.19,-3.037 -1.301,-1.245 -2.279,-2.557 -1.605,-4.509 0.082,-0.237 -0.173,-0.586 -0.261,-0.887 -0.895,-3.052 -3.124,-5.233 -4.956,-7.684 -1.523,-2.039 -2.944,-4.158 -4.328,-6.295 -0.245,-0.378 -0.302,-1.223 -0.055,-1.487 0.319,-0.342 1.031,-0.422 1.574,-0.42 0.466,10e-4 1.189,0.146 1.344,0.454 0.343,0.688 0.639,1.557 0.52,2.28 -0.172,1.048 0.272,1.663 0.891,2.315 1.971,2.08 3.944,4.156 5.893,6.258 1.061,1.145 2.07,2.337 3.104,3.508 0.195,-0.059 0.389,-0.116 0.583,-0.173 z"
         id="path6025"
         inkscape:connector-curvature="0"
         style="fill:#065a1b;fill-opacity:1;stroke-width:0.93381375" /></g><path
       d="M 258.133,66.58 138.009,60.278 c -0.199,4.916 -1.312,9.177 -3.639,13.18 l 64.042,38.305 c 12.189,-4.113 14.303,-5.477 32.385,-11.607 1.902,-0.645 4.079,-0.474 6.703,1.844 30.117,29.257 38,44.25 53.75,48.25 0.319,0.081 0.629,0.186 0.934,0.301 -1.29,-32.214 -13.938,-61.501 -34.051,-83.971 z m -40.093,9.441 c -0.175,0.15 -0.349,0.302 -0.602,0.148 -0.037,-0.022 -0.084,-0.024 -0.145,-0.011 0.067,0.07 0.137,0.14 0.229,0.234 -1.008,0.457 -2.053,0.722 -3.097,0.992 0.002,0.016 0.007,0.032 0.008,0.047 0.084,-0.005 0.169,-0.009 0.254,-0.015 0.765,-0.05 1.528,-0.113 2.295,-0.145 0.262,-0.011 0.53,0.055 0.794,0.098 0.056,0.01 0.102,0.075 0.154,0.115 -0.046,0.039 -0.086,0.099 -0.14,0.114 -0.438,0.13 -0.88,0.258 -1.322,0.372 -0.167,0.043 -0.326,0.051 -0.285,0.296 0.011,0.057 -0.064,0.155 -0.126,0.192 -0.228,0.135 -0.463,0.265 -0.706,0.372 -0.066,0.029 -0.173,-0.034 -0.261,-0.045 -0.058,-0.008 -0.132,-0.019 -0.169,0.01 -0.029,0.023 -0.009,0.105 -0.02,0.159 -0.013,0.055 -0.021,0.123 -0.058,0.159 -0.307,0.306 -0.679,0.503 -1.111,0.622 0.12,0.308 -0.079,0.433 -0.304,0.549 -0.092,0.046 -0.175,0.114 -0.261,0.174 -0.101,0.069 -0.137,0.154 -0.114,0.284 0.013,0.066 -0.035,0.163 -0.087,0.215 -0.092,0.094 -0.208,0.165 -0.314,0.248 -0.126,0.103 -0.224,0.216 -0.178,0.403 0.009,0.041 -0.031,0.113 -0.069,0.145 -0.177,0.149 -0.349,0.31 -0.549,0.426 -0.156,0.094 -0.212,0.213 -0.196,0.372 0.022,0.21 -0.042,0.37 -0.206,0.503 -0.065,0.053 -0.15,0.134 -0.152,0.205 -0.015,0.417 -0.295,0.789 -0.202,1.222 0.029,0.144 0.078,0.293 0.064,0.435 -0.009,0.108 -0.103,0.21 -0.158,0.314 -0.022,0.04 -0.057,0.075 -0.066,0.117 -0.071,0.282 -0.133,0.565 -0.208,0.846 -0.025,0.098 -0.084,0.187 -0.12,0.284 -0.022,0.058 -0.03,0.121 -0.04,0.182 -0.031,0.165 -0.023,0.353 -0.104,0.49 -0.058,0.104 -0.221,0.171 -0.352,0.203 -0.097,0.024 -0.134,0.049 -0.126,0.138 0.025,0.273 -0.103,0.492 -0.251,0.703 -0.016,0.024 -0.035,0.05 -0.038,0.077 -0.062,0.451 -0.319,0.785 -0.637,1.082 -0.12,0.111 -0.135,0.228 -0.127,0.388 0.013,0.281 0.14,0.443 0.369,0.59 1.063,0.678 2.076,1.435 3.191,2.032 1.104,0.59 2.229,1.135 3.423,1.522 0.016,0.006 0.035,0.008 0.049,0.019 0.077,0.068 0.214,0.135 0.216,0.208 0.003,0.078 -0.104,0.184 -0.188,0.237 -0.206,0.13 -0.422,0.236 -0.688,0.201 -0.1,-0.015 -0.214,0.076 -0.316,0.065 -0.215,-0.02 -0.426,-0.083 -0.64,-0.111 -0.119,-0.016 -0.243,0.01 -0.363,0.001 -0.304,-0.02 -0.5,0.234 -0.779,0.296 -0.343,0.076 -0.651,0.597 -0.591,0.94 0.038,0.227 0.113,0.448 0.194,0.663 0.099,0.265 0.223,0.521 0.334,0.78 0.13,0.299 0.002,0.572 -0.105,0.837 -0.056,0.131 -0.253,0.126 -0.354,-0.002 -0.16,-0.199 -0.288,-0.425 -0.455,-0.616 -0.697,-0.796 -1.373,-1.614 -2.114,-2.365 -0.889,-0.902 -1.834,-1.749 -2.769,-2.605 -0.184,-0.17 -0.426,-0.276 -0.644,-0.409 -0.031,-0.02 -0.092,-0.039 -0.113,-0.023 -0.159,0.111 -0.323,0.049 -0.488,0.036 -0.111,-0.01 -0.241,-0.045 -0.291,0.114 -0.002,0.008 -0.018,0.019 -0.026,0.02 -0.302,0.06 -0.553,0.244 -0.837,0.352 -0.218,0.083 -0.476,0.102 -0.633,0.323 -0.035,0.05 -0.132,0.075 -0.203,0.082 -0.203,0.021 -0.378,0.066 -0.556,0.198 -0.196,0.144 -0.446,0.18 -0.715,0.103 -0.246,-0.071 -0.514,-0.093 -0.753,0.066 -0.038,0.025 -0.089,0.072 -0.118,0.063 -0.252,-0.076 -0.363,0.127 -0.487,0.258 -0.171,0.179 -0.368,0.216 -0.586,0.183 -0.147,-0.021 -0.223,0.02 -0.25,0.16 -0.041,0.213 -0.137,0.394 -0.313,0.526 -0.022,0.019 -0.048,0.053 -0.068,0.051 -0.288,-0.027 -0.33,0.234 -0.442,0.394 -0.111,0.16 -0.178,0.337 -0.43,0.306 -0.05,-0.007 -0.132,0.085 -0.171,0.148 -0.075,0.124 -0.125,0.262 -0.192,0.39 -0.07,0.128 -0.163,0.196 -0.328,0.158 -0.19,-0.045 -0.208,-10e-4 -0.244,0.197 -0.026,0.144 -0.099,0.283 -0.166,0.417 -0.059,0.113 -0.121,0.235 -0.213,0.318 -0.295,0.262 -0.38,0.625 -0.516,0.969 -0.112,0.283 -0.253,0.547 -0.561,0.682 -0.053,0.022 -0.081,0.125 -0.102,0.197 -0.131,0.438 -0.245,0.882 -0.394,1.314 -0.045,0.134 -0.164,0.254 -0.274,0.352 -0.146,0.123 -0.259,0.077 -0.271,-0.112 -0.021,-0.336 -0.018,-0.673 -0.024,-1.01 -0.002,-0.103 0.002,-0.206 0.002,-0.31 -0.017,-0.004 -0.034,-0.009 -0.051,-0.014 -0.054,0.15 -0.088,0.312 -0.166,0.448 -0.138,0.246 -0.298,0.481 -0.465,0.709 -0.041,0.055 -0.155,0.096 -0.222,0.081 -0.046,-0.011 -0.092,-0.127 -0.096,-0.199 -0.009,-0.214 0.001,-0.43 0.005,-0.645 10e-4,-0.066 0.002,-0.133 0.003,-0.237 -0.101,0.087 -0.164,0.152 -0.237,0.204 -0.13,0.095 -0.227,0.069 -0.25,-0.089 -0.038,-0.233 -0.062,-0.473 -0.064,-0.71 -0.004,-0.278 0.033,-0.557 0.034,-0.836 0.003,-0.171 -0.01,-0.348 -0.053,-0.513 -0.182,-0.729 -0.25,-1.464 -0.136,-2.213 0.012,-0.073 0.029,-0.157 0.005,-0.223 -0.316,-0.845 -0.141,-1.638 0.254,-2.404 0.427,-0.832 0.85,-1.667 1.309,-2.482 0.253,-0.45 0.586,-0.852 1.021,-1.151 0.271,-0.186 0.57,-0.25 0.891,-0.263 0.713,-0.029 1.429,-0.047 2.127,-0.23 0.387,-0.102 0.75,-0.249 1.084,-0.47 0.117,-0.077 0.125,-0.156 0.094,-0.292 -0.091,-0.405 -0.366,-0.693 -0.611,-0.997 -0.045,-0.057 -0.181,-0.04 -0.276,-0.057 -0.011,0.018 -0.021,0.034 -0.034,0.051 -0.018,-0.088 -0.066,-0.183 -0.047,-0.263 0.067,-0.298 0.195,-0.556 0.479,-0.723 0.314,-0.184 0.646,-0.278 0.999,-0.224 0.233,0.036 0.459,0.122 0.688,0.188 0.311,0.09 0.625,0.084 0.93,-0.003 0.108,-0.032 0.215,-0.118 0.294,-0.204 0.764,-0.84 1.143,-1.838 1.176,-2.966 0.012,-0.371 -0.015,-0.743 -0.036,-1.114 -0.031,-0.557 0.236,-0.981 0.595,-1.364 0.52,-0.555 1.127,-1.007 1.748,-1.438 0.808,-0.559 1.613,-1.123 2.454,-1.627 0.957,-0.574 1.942,-1.104 3.028,-1.41 0.146,-0.042 0.297,-0.069 0.446,-0.104 0.014,0.019 0.026,0.036 0.038,0.054 -0.047,0.065 -0.092,0.132 -0.142,0.195 -0.054,0.067 -0.113,0.13 -0.153,0.229 0.08,-0.027 0.163,-0.053 0.244,-0.084 0.803,-0.305 1.605,-0.615 2.413,-0.911 0.167,-0.061 0.352,-0.075 0.53,-0.1 0.043,-0.006 0.096,0.022 0.144,0.035 -0.02,0.05 -0.024,0.12 -0.062,0.147 -0.256,0.189 -0.518,0.373 -0.782,0.551 -0.121,0.082 -0.256,0.148 -0.383,0.221 0.008,0.022 0.017,0.044 0.023,0.066 0.091,-0.032 0.18,-0.071 0.271,-0.096 0.623,-0.165 1.246,-0.334 1.873,-0.487 0.161,-0.039 0.336,-0.031 0.504,-0.027 0.06,0.001 0.117,0.054 0.176,0.083 -0.028,0.052 -0.046,0.128 -0.091,0.153 -0.254,0.146 -0.511,0.297 -0.778,0.416 -0.408,0.18 -0.83,0.335 -1.244,0.502 -0.059,0.023 -0.111,0.059 -0.158,0.128 0.098,-0.016 0.196,-0.029 0.293,-0.047 0.674,-0.125 1.348,-0.254 2.022,-0.37 0.128,-0.022 0.268,-0.002 0.397,0.02 0.126,0.022 0.135,0.101 0.041,0.182 z"
       id="path6027"
       inkscape:connector-curvature="0"
       style="fill:#065a1b;fill-opacity:1;stroke-width:0.93381375" /><path
       d="m 284.028,199.966 c -31.062,3.858 -60.588,3.84 -85.376,3.593 1.365,-3.567 2.674,-7.063 4.047,-10.534 0.822,-2.083 -0.433,-2.526 -2.001,-3.039 -1.624,-0.53 -2.877,-0.709 -3.315,1.424 -0.329,1.604 -0.7,3.89 -1.109,5.703 -11.17,-6.256 -18.832,-11.725 -24.772,-18.294 -10.14,-11.215 -17.724,-24.146 -24.333,-37.687 -3.096,-6.344 -5.785,-12.892 -8.646,-19.319 -11.164,31.93 -34.605,53.456 -60.107,73.938 -0.411,-1.757 -0.732,-2.9 -0.939,-4.064 -0.382,-2.148 -1.505,-2.349 -3.383,-1.718 -1.75,0.587 -2.847,1.143 -1.936,3.284 1.606,3.777 3.1,8.1 4.641,12.317 -23.96,0.286 -43.396,0.415 -43.396,0.415 l 1.901,4.753 h 43.461 c 0.459,1.146 0.924,2.272 1.405,3.342 0.31,0.689 2.213,0.396 2.205,-0.44 -0.009,-0.876 -0.271,-1.884 -0.548,-2.901 h 111.095 c -0.27,1.078 -0.51,2.108 -0.616,2.901 -0.087,0.617 2.324,0.558 2.465,-0.006 0.216,-0.867 0.602,-1.906 1.015,-2.896 h 84.441 z M 152.85,154.28 c 7.154,12.522 15.129,24.506 26.513,33.535 4.992,3.962 10.703,6.991 16.425,10.661 -0.122,0.519 -0.405,1.758 -0.779,3.391 -26.748,-15.498 -43.236,-38.754 -52.7,-67.659 3.499,6.7 6.796,13.518 10.541,20.072 z m -72.121,40.943 c 14.139,-10.77 27.057,-22.853 38.328,-36.685 6.916,-8.487 12.888,-17.599 17.143,-27.787 0.162,-0.392 0.552,-1.326 1.717,-3.854 -1.69,5.695 -4.34,13.758 -6.832,18.853 -4.96,10.141 -11.672,19.115 -19.098,27.514 -9.198,10.403 -19.174,20.001 -29.958,28.722 -0.491,0.396 -1.022,0.745 -1.879,1.368 -0.495,-2.067 -1.171,-3.885 -1.257,-5.729 -0.036,-0.779 1.04,-1.796 1.836,-2.402 z m 51.74,-5.394 c 2.791,-5.188 4.797,-10.809 6.972,-15.823 0.939,3.454 1.743,7.685 3.246,11.643 2.371,6.245 4.722,12.021 10.313,18.466 -8.423,0.328 -22.122,0.585 -34.35,0.822 5.778,-3.886 10.514,-8.964 13.819,-15.108 z"
       id="path6029"
       inkscape:connector-curvature="0"
       style="fill:#065a1b;fill-opacity:1;stroke-width:0.93381375" /></g><path
     stroke-miterlimit="10"
     d="M 173.188,122.226"
     id="path6031"
     inkscape:connector-curvature="0"
     style="fill:#ffffff;stroke:#010202;stroke-miterlimit:10"
     transform="translate(-5.67,3.495)" /><path
     stroke-miterlimit="10"
     d="M 214.268,105.668"
     id="path6033"
     inkscape:connector-curvature="0"
     style="fill:#ffffff;stroke:#010202;stroke-miterlimit:10"
     transform="translate(-5.67,3.495)" /><rect
     style="color:#000000;display:inline;overflow:visible;visibility:visible;opacity:1;fill:none;fill-opacity:1;fill-rule:nonzero;stroke:none;stroke-width:0.75590551;stroke-linecap:butt;stroke-linejoin:miter;stroke-miterlimit:4;stroke-dasharray:none;stroke-dashoffset:0;stroke-opacity:0.56020945;marker:none;marker-start:none;marker-mid:none;marker-end:none;enable-background:accumulate"
     id="rect872"
     width="314.24408"
     height="314.24408"
     x="0"
     y="-0.24407959"
     ry="13.649718" /></svg>
